<svg t="1631930256862" class="icon" viewBox="0 0 1024 1024" version="1.1" xmlns="http://www.w3.org/2000/svg" p-id="1021" width="18" height="18"><path d="M976.635798 644.584644a40.139154 40.139154 0 0 0-40.139154 40.139154v198.989858a52.732814 52.732814 0 0 1-52.732814 52.582292H140.48704a52.68264 52.68264 0 0 1-52.732814-52.582292v-198.88951a40.139154 40.139154 0 0 0-80.729874 0v198.989858A133.462688 133.462688 0 0 0 140.48704 1016.975648h743.076094a133.462688 133.462688 0 0 0 133.462688-133.161644v-198.989858a40.139154 40.139154 0 0 0-40.390024-40.239502z" fill="#e1e1e1" p-id="1022"></path><path d="M483.877505 786.526728a40.390024 40.390024 0 0 0 57.047773 0l267.276594-266.674506a40.139154 40.139154 0 1 0-57.047773-56.947425l-198.688814 198.187074V47.46455a40.139154 40.139154 0 0 0-80.830222 0v613.075408l-198.538292-198.187074a40.139154 40.139154 0 1 0-57.097947 56.947425z" fill="#e1e1e1" p-id="1023"></path></svg>
