<?xml version="1.0" standalone="no"?><!DOCTYPE svg PUBLIC "-//W3C//DTD SVG 1.1//EN" "http://www.w3.org/Graphics/SVG/1.1/DTD/svg11.dtd"><svg t="1629094140744" class="icon" viewBox="0 0 1024 1024" version="1.1" xmlns="http://www.w3.org/2000/svg" p-id="2236" xmlns:xlink="http://www.w3.org/1999/xlink" width="200" height="200"><defs><style type="text/css"></style></defs><path d="M512 51.2c30.72 0 51.2 20.48 51.2 51.2v819.2c0 30.72-20.48 51.2-51.2 51.2s-51.2-20.48-51.2-51.2V102.4c0-30.72 20.48-51.2 51.2-51.2zM921.6 409.6v204.8h-102.4V409.6h102.4M204.8 409.6v204.8H102.4V409.6h102.4m716.8-102.4h-102.4c-56.32 0-102.4 46.08-102.4 102.4v204.8c0 56.32 46.08 102.4 102.4 102.4h102.4c56.32 0 102.4-46.08 102.4-102.4V409.6c0-56.32-46.08-102.4-102.4-102.4zM204.8 307.2H102.4C46.08 307.2 0 353.28 0 409.6v204.8c0 56.32 46.08 102.4 102.4 102.4h102.4c56.32 0 102.4-46.08 102.4-102.4V409.6c0-56.32-46.08-102.4-102.4-102.4z" p-id="2237" fill="#fff"></path></svg>
